<svg width="1920" height="450" viewBox="0 0 1920 450" fill="none" xmlns="http://www.w3.org/2000/svg">
<circle cx="679.5" cy="88.5" r="88.5" fill="#FB8F3E"/>
<path d="M959.711 222C560.884 222 209.025 312.207 0 449.619L1920 450C1711.05 312.374 1358.91 222 959.711 222Z" fill="white"/>
<path d="M817.312 360.452H628.417C627.701 360.452 627.015 360.168 626.509 359.662C626.003 359.157 625.719 358.471 625.719 357.756C625.719 357.041 626.003 356.356 626.509 355.85C627.015 355.345 627.701 355.061 628.417 355.061H817.312C818.027 355.061 818.714 355.345 819.22 355.85C819.726 356.356 820.01 357.041 820.01 357.756C820.01 358.471 819.726 359.157 819.22 359.662C818.714 360.168 818.027 360.452 817.312 360.452Z" fill="#6B6B6B"/>
<path d="M671.593 374.827H482.699C481.984 374.826 481.298 374.542 480.793 374.036C480.288 373.531 480.004 372.846 480.004 372.132C480.004 371.418 480.288 370.733 480.793 370.228C481.298 369.722 481.984 369.438 482.699 369.437H671.593C672.308 369.438 672.993 369.722 673.498 370.228C674.003 370.733 674.287 371.418 674.287 372.132C674.287 372.846 674.003 373.531 673.498 374.036C672.993 374.542 672.308 374.826 671.593 374.827Z" fill="#6B6B6B"/>
<path d="M933.347 344.279H744.452C743.737 344.279 743.05 343.995 742.544 343.49C742.038 342.984 741.754 342.299 741.754 341.584C741.754 340.869 742.038 340.183 742.544 339.678C743.05 339.172 743.737 338.888 744.452 338.888H933.347C934.063 338.888 934.749 339.172 935.255 339.678C935.761 340.183 936.045 340.869 936.045 341.584C936.045 342.299 935.761 342.984 935.255 343.49C934.749 343.995 934.063 344.279 933.347 344.279Z" fill="#6B6B6B"/>
<path d="M784.93 391H706.673C705.958 391 705.271 390.716 704.765 390.21C704.259 389.705 703.975 389.019 703.975 388.305C703.975 387.59 704.259 386.904 704.765 386.399C705.271 385.893 705.958 385.609 706.673 385.609H784.93C785.645 385.609 786.332 385.893 786.838 386.399C787.344 386.904 787.628 387.59 787.628 388.305C787.628 389.019 787.344 389.705 786.838 390.21C786.332 390.716 785.645 391 784.93 391Z" fill="#6B6B6B"/>
<path d="M615.824 391H537.568C536.852 391 536.166 390.716 535.66 390.21C535.154 389.705 534.869 389.019 534.869 388.305C534.869 387.59 535.154 386.904 535.66 386.399C536.166 385.893 536.852 385.609 537.568 385.609H615.824C616.54 385.609 617.226 385.893 617.732 386.399C618.238 386.904 618.523 387.59 618.523 388.305C618.523 389.019 618.238 389.705 617.732 390.21C617.226 390.716 616.54 391 615.824 391Z" fill="#6B6B6B"/>
<path d="M933.347 374.827H744.452C743.737 374.827 743.05 374.543 742.544 374.038C742.038 373.532 741.754 372.847 741.754 372.132C741.754 371.417 742.038 370.731 742.544 370.226C743.05 369.72 743.737 369.437 744.452 369.437H933.347C934.062 369.438 934.747 369.722 935.252 370.228C935.757 370.733 936.041 371.418 936.041 372.132C936.041 372.846 935.757 373.531 935.252 374.036C934.747 374.542 934.062 374.826 933.347 374.827Z" fill="#6B6B6B"/>
<path d="M1014.3 391H825.407C824.691 391 824.005 390.716 823.499 390.21C822.993 389.705 822.708 389.019 822.708 388.305C822.708 387.59 822.993 386.904 823.499 386.399C824.005 385.893 824.691 385.609 825.407 385.609H1014.3C1015.02 385.609 1015.7 385.893 1016.21 386.399C1016.72 386.904 1017 387.59 1017 388.305C1017 389.019 1016.72 389.705 1016.21 390.21C1015.7 390.716 1015.02 391 1014.3 391Z" fill="#6B6B6B"/>
<path d="M893.769 205.914V178.959H914.457C918.119 178.959 921.745 178.239 925.128 176.839C928.511 175.44 931.585 173.388 934.175 170.802C936.764 168.215 938.818 165.145 940.219 161.766C941.62 158.386 942.342 154.764 942.342 151.107V151.107H784.93C784.93 147.771 786.256 144.571 788.618 142.212C790.98 139.853 794.183 138.528 797.523 138.528H907.261V135.401C907.261 124.723 899.861 116.066 890.732 116.066H753.965C732.9 116.066 713.655 129.618 703.728 151.107H681.703C679.834 151.107 678.038 151.833 676.696 153.132L662.768 166.609C661.739 167.605 661.031 168.885 660.735 170.286C660.438 171.686 660.568 173.143 661.105 174.47C661.643 175.796 662.565 176.932 663.754 177.732C664.942 178.532 666.342 178.959 667.775 178.959H685.085V205.914H605.563C604.547 205.914 603.542 206.129 602.615 206.545C601.688 206.96 600.86 207.568 600.185 208.326L584.194 226.296C583.272 227.331 582.67 228.611 582.459 229.981C582.249 231.35 582.439 232.752 583.008 234.016C583.576 235.28 584.498 236.353 585.663 237.106C586.827 237.858 588.185 238.259 589.572 238.259H639.028C640.248 238.259 641.448 238.569 642.516 239.159C643.583 239.75 644.482 240.602 645.129 241.635L653.808 255.496C654.464 256.544 654.838 257.743 654.895 258.978C654.952 260.213 654.689 261.442 654.131 262.545C653.573 263.649 652.74 264.59 651.712 265.278C650.684 265.967 649.496 266.378 648.262 266.474L540.995 274.762C539.69 274.863 538.436 275.318 537.37 276.078C536.304 276.838 535.466 277.875 534.946 279.076L512.231 331.543C511.758 332.637 511.564 333.831 511.667 335.018C511.77 336.205 512.167 337.347 512.822 338.343C513.477 339.339 514.37 340.156 515.419 340.722C516.469 341.288 517.643 341.584 518.836 341.584H877.246C886.025 341.587 894.786 340.789 903.42 339.2C967.409 327.406 1013.4 270.909 1013.4 205.914V205.914H893.769ZM712.07 178.959H866.784V205.914H712.07V178.959ZM936.945 236.462C936.945 240.238 936.2 243.976 934.754 247.465C933.307 250.953 931.187 254.122 928.514 256.792C925.841 259.462 922.668 261.58 919.176 263.025C915.684 264.47 911.941 265.213 908.161 265.213H676.09V265.213C676.09 257.588 679.123 250.275 684.521 244.883C689.919 239.491 697.24 236.462 704.874 236.462H936.945V236.462Z" fill="#939393"/>
</svg>
