<svg width="28" height="40" viewBox="0 0 28 40" fill="none" xmlns="http://www.w3.org/2000/svg">
<path d="M10.5 38H14H17.5M2 14.25C2 11.0011 3.26428 7.88526 5.51472 5.58794C7.76516 3.29062 10.8174 2 14 2C17.1826 2 20.2348 3.29062 22.4853 5.58794C24.7357 7.88526 26 11.0011 26 14.25C26.0011 16.2224 25.5338 18.1656 24.6381 19.9133C23.7424 21.6609 22.4451 23.1608 20.8571 24.2845L19.928 28.775C19.805 29.6027 19.3954 30.358 18.7736 30.9038C18.1518 31.4496 17.3589 31.7498 16.5389 31.75H11.4611C10.6411 31.7498 9.84819 31.4496 9.22638 30.9038C8.60458 30.358 8.19501 29.6027 8.072 28.775L7.14286 24.3038C5.55441 23.1761 4.25698 21.6727 3.36141 19.9219C2.46583 18.1711 1.99873 16.2251 2 14.25Z" stroke="white" stroke-width="2.33855" stroke-linecap="round" stroke-linejoin="round"/>
<path d="M8 35H19.0309" stroke="white" stroke-width="1.50422" stroke-linecap="round" stroke-linejoin="round"/>
</svg>
