<svg width="35" height="38" viewBox="0 0 35 38" fill="none" xmlns="http://www.w3.org/2000/svg">
<path d="M1.89294 0.015625H33.1071C34.1439 0.015625 34.9844 0.856127 34.9844 1.89294C34.9844 2.92975 34.1439 3.77025 33.1071 3.77025H1.89294C0.856128 3.77025 0.015625 2.92975 0.015625 1.89294C0.015625 0.856127 0.856127 0.015625 1.89294 0.015625Z" fill="white" stroke="#8A8585" stroke-width="0.03125"/>
<path d="M1.72086 17.2242H22.8659C23.8077 17.2242 24.5712 17.9876 24.5712 18.9294C24.5712 19.8712 23.8077 20.6346 22.8659 20.6346H1.72085C0.779081 20.6346 0.015625 19.8712 0.015625 18.9294C0.015625 17.9876 0.779083 17.2242 1.72086 17.2242Z" fill="white" stroke="#8A8585" stroke-width="0.03125"/>
<path d="M1.89293 34.0886H33.1071C34.1439 34.0886 34.9844 34.9291 34.9844 35.9659C34.9844 37.0027 34.1439 37.8432 33.1071 37.8432H1.89293C0.856126 37.8432 0.015625 37.0027 0.015625 35.9659C0.015625 34.9291 0.856124 34.0886 1.89293 34.0886Z" fill="white" stroke="#8A8585" stroke-width="0.03125"/>
</svg>
